# xmcd CD database file
#
# Track frame offsets:
#	150
#	15597
#	33930
#	50570
#	70915
#	88170
#	104860
#	121487
#	137290
#	156915
#	175710
#	195392
#	213820
#	230052
#	249347
#	265930
#	292560
#	312570
#
# Disc length: 4404 seconds
#
# Revision: 14
# Processed by: cddbd v1.5.2PL0 Copyright (c) Steve Scherf et al.
# Submitted via: CDex 1.70beta2
#
DISCID=f8113212
DTITLE=鄭秀文 - 多謝 
DYEAR=1999
DGENRE=Pop
TTITLE0=Arigatou  
TTITLE1=失戀有根據 
TTITLE2=發熱發亮 
TTITLE3=插曲 
TTITLE4=寵物  
TTITLE5=愛你是我一生中理想
TTITLE6=理想對象  
TTITLE7=哭泣遊戲  
TTITLE8=心血來潮   
TTITLE9=為何又是這樣錯(電影《行運一條龍》插曲) 
TTITLE10=唉聲嘆氣  
TTITLE11=親密關係(電影《行運一條龍》主題曲) 
TTITLE12=我們的主題曲 
TTITLE13=不拖不欠
TTITLE14=默契
TTITLE15=愛的輓歌   
TTITLE16=捨不得你 
TTITLE17=插曲   (Acoustic Version)
EXTD=YEAR: 1999
EXTT0=
EXTT1=
EXTT2=
EXTT3=
EXTT4=
EXTT5=
EXTT6=
EXTT7=
EXTT8=
EXTT9=
EXTT10=
EXTT11=
EXTT12=
EXTT13=
EXTT14=
EXTT15=
EXTT16=
EXTT17=
PLAYORDER=
